<svg width="66" height="34" viewBox="0 0 66 34" fill="none" xmlns="http://www.w3.org/2000/svg">
<path d="M1 1V0.75H0.75V1H1ZM17 1L17.25 1V0.75L17 0.75V1ZM1 1.25L17 1.25V0.75L1 0.75V1.25ZM16.75 1V17H17.25L17.25 1L16.75 1ZM1.25 17L1.25 1H0.75L0.75 17H1.25Z" fill="black" fill-opacity="0.12"/>
<path d="M1 17V16.75H0.75V17H1ZM17 17H17.25V16.75H17V17ZM17 33V33.25H17.25V33H17ZM1 33H0.75L0.75 33.25H1V33ZM1 17.25L17 17.25V16.75L1 16.75V17.25ZM16.75 17V33H17.25L17.25 17H16.75ZM17 32.75H1L1 33.25H17V32.75ZM1.25 33L1.25 17H0.75L0.75 33H1.25Z" fill="black" fill-opacity="0.12"/>
<path d="M33 1L33.25 1V0.75L33 0.75V1ZM17 1.25L33 1.25V0.75L17 0.75V1.25ZM32.75 1V17H33.25V1L32.75 1Z" fill="black" fill-opacity="0.12"/>
<path d="M33 17H33.25V16.75H33V17ZM33 33V33.25H33.25V33H33ZM17 17.25L33 17.25V16.75L17 16.75V17.25ZM32.75 17V33H33.25V17H32.75ZM33 32.75H17V33.25H33V32.75Z" fill="black" fill-opacity="0.12"/>
<path d="M49 1L49.25 1V0.75L49 0.75V1ZM33 1.25L49 1.25V0.75L33 0.75V1.25ZM48.75 1V17H49.25V1L48.75 1Z" fill="black" fill-opacity="0.12"/>
<path d="M65 1L65.25 1V0.75L65 0.75V1ZM49 1.25L65 1.25V0.75L49 0.75V1.25ZM64.75 1V17H65.25V1L64.75 1Z" fill="black" fill-opacity="0.12"/>
<path d="M49 17H49.25V16.75H49V17ZM49 33V33.25H49.25V33H49ZM33 17.25L49 17.25V16.75L33 16.75V17.25ZM48.75 17V33H49.25V17H48.75ZM49 32.75H33V33.25H49V32.75Z" fill="black" fill-opacity="0.12"/>
<path d="M65 17H65.25V16.75H65V17ZM65 33V33.25H65.25V33H65ZM49 17.25L65 17.25V16.75L49 16.75V17.25ZM64.75 17V33H65.25V17H64.75ZM65 32.75H49V33.25H65V32.75Z" fill="black" fill-opacity="0.12"/>
<line x1="49.5" y1="1" x2="49.5" y2="33" stroke="#212121"/>
<line x1="65.5" y1="1" x2="65.5" y2="33" stroke="#212121"/>
<line x1="33.5" y1="1" x2="33.5" y2="33" stroke="#212121"/>
<line x1="17.5" y1="1" x2="17.5" y2="33" stroke="#212121"/>
<line x1="1.5" y1="1" x2="1.5" y2="33" stroke="#212121"/>
</svg>
