<svg width="66" height="34" viewBox="0 0 66 34" fill="none" xmlns="http://www.w3.org/2000/svg">
<path d="M1 1V0.75H0.75V1H1ZM17 1H17.25V0.75H17V1ZM1 1.25H17V0.75H1V1.25ZM16.75 1V17H17.25V1H16.75ZM1.25 17V1H0.75V17H1.25Z" fill="black" fill-opacity="0.12"/>
<path d="M1 17V16.75H0.75V17H1ZM17 17H17.25V16.75H17V17ZM17 33V33.25H17.25V33H17ZM1 33H0.75V33.25H1V33ZM1 17.25H17V16.75H1V17.25ZM16.75 17V33H17.25V17H16.75ZM17 32.75H1V33.25H17V32.75ZM1.25 33V17H0.75V33H1.25Z" fill="black" fill-opacity="0.12"/>
<path d="M33 1H33.25V0.75H33V1ZM17 1.25H33V0.75H17V1.25ZM32.75 1V17H33.25V1H32.75Z" fill="black" fill-opacity="0.12"/>
<path d="M33 17H33.25V16.75H33V17ZM33 33V33.25H33.25V33H33ZM17 17.25H33V16.75H17V17.25ZM32.75 17V33H33.25V17H32.75ZM33 32.75H17V33.25H33V32.75Z" fill="black" fill-opacity="0.12"/>
<path d="M49 1H49.25V0.75H49V1ZM33 1.25H49V0.75H33V1.25ZM48.75 1V17H49.25V1H48.75Z" fill="black" fill-opacity="0.12"/>
<path d="M65 1H65.25V0.75H65V1ZM49 1.25H65V0.75H49V1.25ZM64.75 1V17H65.25V1H64.75Z" fill="black" fill-opacity="0.12"/>
<path d="M49 17H49.25V16.75H49V17ZM49 33V33.25H49.25V33H49ZM33 17.25H49V16.75H33V17.25ZM48.75 17V33H49.25V17H48.75ZM49 32.75H33V33.25H49V32.75Z" fill="black" fill-opacity="0.12"/>
<path d="M65 17H65.25V16.75H65V17ZM65 33V33.25H65.25V33H65ZM49 17.25H65V16.75H49V17.25ZM64.75 17V33H65.25V17H64.75ZM65 32.75H49V33.25H65V32.75Z" fill="black" fill-opacity="0.12"/>
<line x1="1" y1="0.5" x2="65" y2="0.5" stroke="#212121"/>
<line x1="1" y1="16.5" x2="65" y2="16.5" stroke="#212121"/>
<line x1="1" y1="32.5" x2="65" y2="32.5" stroke="#212121"/>
</svg>
